<?xml version="1.0" standalone="no"?>
<!DOCTYPE svg PUBLIC "-//W3C//DTD SVG 20010904//EN"
 "http://www.w3.org/TR/2001/REC-SVG-20010904/DTD/svg10.dtd">
<svg version="1.0" xmlns="http://www.w3.org/2000/svg"
 width="474.000000pt" height="316.000000pt" viewBox="0 0 474.000000 316.000000"
 preserveAspectRatio="xMidYMid meet">

<g transform="translate(0.000000,316.000000) scale(0.100000,-0.100000)"
fill="#000000" stroke="none">
<path d="M2205 3113 c-162 -14 -389 -79 -537 -154 -142 -71 -343 -214 -343
-243 0 -26 132 -127 252 -193 28 -15 112 -70 186 -121 127 -86 136 -95 156
-145 12 -28 58 -97 102 -152 80 -99 101 -136 184 -330 54 -128 77 -199 73
-226 -2 -12 -15 -31 -30 -42 l-27 -20 -36 27 c-20 15 -48 50 -63 78 -84 155
-135 238 -172 283 -22 28 -51 66 -63 85 -13 19 -30 36 -40 38 -15 3 -16 0 -7
-23 20 -53 5 -193 -26 -242 -18 -29 -75 -31 -124 -4 -35 18 -36 18 -59 0 -37
-30 -85 -25 -121 14 l-30 32 -31 -17 c-17 -10 -44 -18 -60 -18 -40 0 -82 60
-99 142 -17 85 -29 104 -107 190 -127 137 -183 202 -183 210 0 21 -19 4 -38
-34 -171 -345 -201 -794 -78 -1163 236 -705 938 -1147 1668 -1050 203 27 385
87 562 185 93 51 237 156 243 176 2 7 -47 55 -109 108 -113 95 -113 95 -130
74 -18 -24 -21 -23 -81 31 l-27 25 -21 -22 -20 -22 -46 37 -45 37 -17 -23 -18
-24 -40 37 c-26 23 -46 34 -57 30 -9 -3 -16 -10 -16 -15 0 -15 -26 -10 -40 6
-12 14 -16 13 -36 -6 l-23 -22 -65 54 c-36 30 -65 58 -65 63 -1 7 40 60 101
130 4 6 15 3 26 -7 10 -9 24 -17 30 -17 14 0 27 40 15 49 -4 4 -89 77 -188
162 -99 84 -183 158 -187 163 -4 6 1 19 10 29 16 18 16 20 -5 37 l-22 18 29
40 c38 53 47 57 71 36 19 -17 20 -17 41 3 l21 21 88 -75 89 -76 39 44 c39 44
39 44 60 25 21 -19 21 -19 59 25 20 24 47 55 59 69 l21 25 22 -20 22 -20 37
43 c40 46 52 50 71 27 12 -14 16 -13 36 6 23 22 24 22 45 3 20 -18 22 -18 34
-1 19 26 35 21 95 -34 30 -27 96 -84 147 -127 51 -42 92 -81 92 -86 1 -5 -6
-17 -14 -26 -15 -16 -11 -22 49 -75 65 -56 65 -57 49 -82 -16 -24 -16 -25 28
-63 l44 -38 -20 -22 -20 -22 25 -20 c14 -11 43 -35 65 -54 22 -19 43 -34 46
-34 11 0 81 164 119 280 53 162 70 273 70 462 0 168 -9 252 -41 383 -152 614
-670 1078 -1297 1160 -103 14 -256 17 -357 8z"/>
<path d="M3087 1453 c-14 -15 -20 -15 -42 -3 -23 12 -28 12 -35 0 -16 -26 -11
-34 50 -83 33 -27 60 -55 60 -61 0 -7 -8 -20 -19 -30 -17 -16 -22 -13 -106 60
l-87 77 -42 -42 -41 -42 22 -18 c100 -83 115 -99 103 -120 -6 -12 -18 -21 -26
-21 -8 0 -52 32 -96 70 -45 39 -84 70 -88 70 -4 0 -21 -17 -38 -39 l-31 -38
85 -72 c46 -40 84 -76 84 -80 0 -15 -27 -44 -37 -40 -6 2 -95 76 -198 164
-103 88 -193 160 -199 160 -7 0 -26 -16 -43 -35 l-30 -35 215 -185 c118 -102
248 -212 288 -245 40 -33 73 -65 73 -71 1 -6 -7 -19 -18 -28 -18 -16 -22 -14
-86 41 l-67 57 -18 -24 c-18 -24 -19 -24 -39 -6 -21 19 -22 19 -47 -5 -49 -45
-50 -57 -7 -94 l38 -33 22 21 c22 20 23 20 43 2 19 -17 21 -17 38 -2 25 22 27
22 73 -15 37 -30 40 -31 58 -14 19 17 21 17 49 -2 16 -12 35 -28 42 -37 12
-14 15 -14 36 6 l23 21 44 -35 43 -36 21 21 21 20 33 -30 c72 -65 203 -172
210 -172 24 0 250 280 248 307 0 4 -31 34 -69 66 l-70 58 17 26 c17 25 17 26
-27 63 -45 38 -45 38 -25 59 19 22 19 22 -35 69 -29 26 -59 51 -66 55 -11 6
-11 12 3 33 15 24 15 26 -3 44 -36 35 -278 240 -284 240 -3 0 -13 -8 -23 -17z"/>
</g>
</svg>
